<svg width="20" height="23" viewBox="0 0 20 23" fill="none" xmlns="http://www.w3.org/2000/svg">
<path fill-rule="evenodd" clip-rule="evenodd" d="M2.016 6.58C2.125 9.341 3.004 21 10 21C16.997 21 17.875 9.341 17.985 6.58L10 2.143L2.016 6.58ZM10 23C0.114 23 0 6.694 0 6C0 5.637 0.197 5.303 0.515 5.126L9.515 0.126C9.817 -0.042 10.184 -0.042 10.486 0.126L19.486 5.126C19.804 5.303 20 5.637 20 6C20 6.694 19.887 23 10 23Z" fill="#333333"/>
<path fill-rule="evenodd" clip-rule="evenodd" d="M10.3393 16.8163L5.25031 13.0003L6.75031 11.0003L9.6613 13.1833L13.9403 6.33731L16.0603 7.66231L10.3393 16.8163Z" fill="#333333"/>
</svg>
