<svg width="21" height="19" viewBox="0 0 21 19" fill="none" xmlns="http://www.w3.org/2000/svg">
<path fill-rule="evenodd" clip-rule="evenodd" d="M18.8374 17H2.8374V5H18.8374V17ZM8.8374 2H12.8374V3H8.8374V2ZM18.8374 3V2H16.8374V3H14.8374V1C14.8374 0.448 14.3894 0 13.8374 0H7.8374C7.2854 0 6.8374 0.448 6.8374 1V3H4.8374V2H2.8374V3C1.7344 3 0.837402 3.897 0.837402 5V17C0.837402 18.103 1.7344 19 2.8374 19H18.8374C19.9404 19 20.8374 18.103 20.8374 17V5C20.8374 3.897 19.9404 3 18.8374 3Z" fill="#333333"/>
<path fill-rule="evenodd" clip-rule="evenodd" d="M11.8374 6H9.8374V7.051C8.6974 7.283 7.8374 8.293 7.8374 9.5C7.8374 10.878 8.9594 12 10.3374 12H11.3374C11.6134 12 11.8374 12.224 11.8374 12.5C11.8374 12.776 11.6134 13 11.3374 13H7.8374V15H9.8374V16H11.8374V14.949C12.9774 14.717 13.8374 13.707 13.8374 12.5C13.8374 11.122 12.7154 10 11.3374 10H10.3374C10.0614 10 9.8374 9.776 9.8374 9.5C9.8374 9.224 10.0614 9 10.3374 9H13.8374V7H11.8374V6Z" fill="#333333"/>
</svg>
