<svg width="22" height="18" viewBox="0 0 22 18" fill="none" xmlns="http://www.w3.org/2000/svg">
<path fill-rule="evenodd" clip-rule="evenodd" d="M3.82762 16H11.5346C15.9456 16 19.5346 12.86 19.5346 9C19.5346 5.14 15.9456 2 11.5346 2C7.12362 2 3.53462 5.14 3.53462 9C3.53462 10.537 4.10262 12 5.17662 13.232C5.51262 13.618 5.50362 14.195 5.15562 14.57L3.82762 16ZM11.5346 18H1.53462C1.13662 18 0.776617 17.764 0.617617 17.4C0.458617 17.035 0.531617 16.611 0.801617 16.32L3.10762 13.836C2.07562 12.392 1.53462 10.735 1.53462 9C1.53462 4.038 6.02062 0 11.5346 0C17.0486 0 21.5346 4.038 21.5346 9C21.5346 13.962 17.0486 18 11.5346 18Z" fill="#333333"/>
<path fill-rule="evenodd" clip-rule="evenodd" d="M6.95652 10C7.72852 11.764 9.48452 13 11.5345 13C13.5845 13 15.3405 11.764 16.1125 10H6.95652Z" fill="#333333"/>
<path fill-rule="evenodd" clip-rule="evenodd" d="M9.78461 6.25C9.78461 6.94 9.22461 7.5 8.53461 7.5C7.84461 7.5 7.28461 6.94 7.28461 6.25C7.28461 5.56 7.84461 5 8.53461 5C9.22461 5 9.78461 5.56 9.78461 6.25Z" fill="#333333"/>
<path fill-rule="evenodd" clip-rule="evenodd" d="M15.7846 6.25C15.7846 6.94 15.2246 7.5 14.5346 7.5C13.8446 7.5 13.2846 6.94 13.2846 6.25C13.2846 5.56 13.8446 5 14.5346 5C15.2246 5 15.7846 5.56 15.7846 6.25Z" fill="#333333"/>
</svg>
